<svg width="32" height="32" viewBox="0 0 32 32" fill="none" xmlns="http://www.w3.org/2000/svg">
<rect width="32" height="32" fill="#0097A7"/>
<path d="M16.0001 26V23M21.0001 18L24.0001 21.3C24.1371 21.4398 24.2301 21.6167 24.2676 21.8088C24.305 22.001 24.2852 22.1998 24.2107 22.3808C24.1362 22.5618 24.0102 22.717 23.8483 22.8271C23.6864 22.9371 23.4958 22.9973 23.3001 23H8.70007C8.50434 22.9973 8.31372 22.9371 8.15185 22.8271C7.98998 22.717 7.86396 22.5618 7.78943 22.3808C7.7149 22.1998 7.69513 22.001 7.73258 21.8088C7.77002 21.6167 7.86302 21.4398 8.00007 21.3L11.0001 18H10.7001C10.5043 17.9973 10.3137 17.9371 10.1519 17.8271C9.98998 17.717 9.86396 17.5619 9.78943 17.3808C9.7149 17.1998 9.69513 17.001 9.73258 16.8088C9.77002 16.6167 9.86302 16.4398 10.0001 16.3L13.0001 13H12.8001C12.5958 13.0184 12.3908 12.9736 12.2129 12.8716C12.035 12.7696 11.8927 12.6154 11.8054 12.4298C11.7181 12.2443 11.6899 12.0364 11.7247 11.8343C11.7596 11.6322 11.8557 11.4456 12.0001 11.3L16.0001 7L20.0001 11.3C20.1445 11.4456 20.2406 11.6322 20.2754 11.8343C20.3102 12.0364 20.2821 12.2443 20.1947 12.4298C20.1074 12.6154 19.9651 12.7696 19.7872 12.8716C19.6093 12.9736 19.4043 13.0184 19.2001 13H19.0001L22.0001 16.3C22.1371 16.4398 22.2301 16.6167 22.2676 16.8088C22.305 17.001 22.2852 17.1998 22.2107 17.3808C22.1362 17.5619 22.0102 17.717 21.8483 17.8271C21.6864 17.9371 21.4958 17.9973 21.3001 18H21.0001Z" stroke="white" stroke-width="2" stroke-linecap="round" stroke-linejoin="round"/>
</svg>
